<svg id="Capa_1" enable-background="new 0 0 512 512" height="512" viewBox="0 0 512 512" width="512" xmlns="http://www.w3.org/2000/svg" xmlns:xlink="http://www.w3.org/1999/xlink"><linearGradient id="SVGID_1_" gradientUnits="userSpaceOnUse" x1="74.981" x2="437.019" y1="437.019" y2="74.981"><stop offset="0" stop-color="#ff726d"/><stop offset="1" stop-color="#ffde00"/></linearGradient><radialGradient id="SVGID_2_" cx="257.014" cy="280.338" gradientUnits="userSpaceOnUse" r="256"><stop offset="0" stop-color="#ff726d"/><stop offset=".2243" stop-color="#ff7966" stop-opacity=".765"/><stop offset=".5582" stop-color="#ff8e51" stop-opacity=".415"/><stop offset=".9537" stop-color="#ffae31" stop-opacity="0"/></radialGradient><linearGradient id="SVGID_3_" gradientUnits="userSpaceOnUse" x1="-19.668" x2="325.289" y1="532.048" y2="187.091"><stop offset="0" stop-color="#eaedc2"/><stop offset=".5215" stop-color="#f6f7e4"/><stop offset="1" stop-color="#fff"/></linearGradient><linearGradient id="SVGID_4_" gradientUnits="userSpaceOnUse" x1="444.645" x2="-173.23" y1="67.734" y2="685.61"><stop offset="0" stop-color="#fff"/><stop offset=".6078" stop-color="#fdcf65"/><stop offset="1" stop-color="#fcb000"/></linearGradient><radialGradient id="SVGID_5_" cx="232.938" cy="279.063" gradientUnits="userSpaceOnUse" r="207.118"><stop offset="0" stop-color="#fca200" stop-opacity=".5"/><stop offset=".1286" stop-color="#fca405" stop-opacity=".436"/><stop offset=".2743" stop-color="#fca812" stop-opacity=".363"/><stop offset=".4283" stop-color="#fcb029" stop-opacity=".286"/><stop offset=".5881" stop-color="#fdbc49" stop-opacity=".206"/><stop offset=".7524" stop-color="#fdca72" stop-opacity=".124"/><stop offset=".9181" stop-color="#fedba3" stop-opacity=".041"/><stop offset="1" stop-color="#fee5be" stop-opacity="0"/></radialGradient><linearGradient id="SVGID_6_" gradientUnits="userSpaceOnUse" x1="145.525" x2="340.466" y1="433.344" y2="238.403"><stop offset="0" stop-color="#fcb000"/><stop offset=".2136" stop-color="#fdc749"/><stop offset=".4253" stop-color="#fedb8a"/><stop offset=".6156" stop-color="#feeabc"/><stop offset=".7808" stop-color="#fff6e1"/><stop offset=".9145" stop-color="#fffcf7"/><stop offset="1" stop-color="#fff"/></linearGradient><linearGradient id="SVGID_7_" gradientUnits="userSpaceOnUse" x1="-612.191" x2="332.882" y1="1058.261" y2="113.188"><stop offset="0" stop-color="#fca200"/><stop offset=".3235" stop-color="#fdc256"/><stop offset=".7925" stop-color="#feedcf"/><stop offset="1" stop-color="#fff"/></linearGradient><radialGradient id="SVGID_8_" cx="316.441" cy="303.074" gradientUnits="userSpaceOnUse" r="145.164"><stop offset="0" stop-color="#fee5be"/><stop offset=".1454" stop-color="#fee9c9" stop-opacity=".855"/><stop offset=".7067" stop-color="#fff9f0" stop-opacity=".293"/><stop offset="1" stop-color="#fff" stop-opacity="0"/></radialGradient><linearGradient id="SVGID_9_" gradientUnits="userSpaceOnUse" x1="487.618" x2="188.099" y1="486.293" y2="186.775"><stop offset="0" stop-color="#fca200"/><stop offset=".0773" stop-color="#fcaa15"/><stop offset=".5392" stop-color="#fed792"/><stop offset=".8556" stop-color="#fff4e0"/><stop offset="1" stop-color="#fff"/></linearGradient><g><circle cx="256" cy="256" fill="url(#SVGID_1_)" r="256"/><circle cx="256" cy="256" fill="url(#SVGID_2_)" r="256"/><path d="m108.995 135c-2.562 95.667-2.085 191.333 1.429 287 .31 8.276 7.299 15.417 15.576 15.888 71.667 4.01 143.333 4.704 215 2.082 8.277-.307 15.181-7.408 15.397-15.794 2.424-96.921 2.752-193.842.986-290.762-.158-8.386-7.088-15.413-15.457-15.646-72.447-1.97-144.894-1.449-217.34 1.565-8.37.356-15.365 7.392-15.591 15.667z" fill="url(#SVGID_3_)"/><path d="m108.995 135c-2.562 95.667-2.085 191.333 1.429 287 .31 8.276 7.299 15.417 15.576 15.888 71.667 4.01 143.333 4.704 215 2.082 8.277-.307 15.181-7.408 15.397-15.794 2.424-96.921 2.752-193.842.986-290.762-.158-8.386-7.088-15.413-15.457-15.646-72.447-1.97-144.894-1.449-217.34 1.565-8.37.356-15.365 7.392-15.591 15.667z" fill="url(#SVGID_4_)"/><path d="m108.995 135c-2.562 95.667-2.085 191.333 1.429 287 .31 8.276 7.299 15.417 15.576 15.888 71.667 4.01 143.333 4.704 215 2.082 8.277-.307 15.181-7.408 15.397-15.794 2.424-96.921 2.752-193.842.986-290.762-.158-8.386-7.088-15.413-15.457-15.646-72.447-1.97-144.894-1.449-217.34 1.565-8.37.356-15.365 7.392-15.591 15.667z" fill="url(#SVGID_5_)"/><path d="m391.109 263.854c-39.35 38.594-79.091 78.528-118.062 117.995-5.544-44.996-11.3-90.036-17.047-135.074 45.036 5.747 90.082 11.556 135.109 17.079z" fill="url(#SVGID_6_)"/><path d="m155.603 87.824c-2.424 96.921-2.752 193.842-.986 290.762.157 8.387 7.088 15.413 15.457 15.645 23.587.641 47.175 1.019 70.762 1.132 12.552.062 23.932-5.133 32.21-13.514 8.274-8.383 13.46-19.957 13.513-32.672.076-18.772.13-37.544.16-56.316.013-8.484 6.9-15.371 15.39-15.387 18.785-.041 37.571-.107 56.356-.199 12.725-.064 24.285-5.229 32.643-13.421 8.357-8.2 13.519-19.439 13.452-31.854-.251-47.333-1.247-94.667-2.985-142-.31-8.275-7.298-15.417-15.576-15.888-71.667-4.01-143.333-4.704-215-2.082-8.276.308-15.18 7.408-15.396 15.794z" fill="url(#SVGID_7_)"/><path d="m155.603 87.824c-2.424 96.921-2.752 193.842-.986 290.762.157 8.387 7.088 15.413 15.457 15.645 23.587.641 47.175 1.019 70.762 1.132 12.552.062 23.932-5.133 32.21-13.514 8.274-8.383 13.46-19.957 13.513-32.672.076-18.772.13-37.544.16-56.316.013-8.484 6.9-15.371 15.39-15.387 18.785-.041 37.571-.107 56.356-.199 12.725-.064 24.285-5.229 32.643-13.421 8.357-8.2 13.519-19.439 13.452-31.854-.251-47.333-1.247-94.667-2.985-142-.31-8.275-7.298-15.417-15.576-15.888-71.667-4.01-143.333-4.704-215-2.082-8.276.308-15.18 7.408-15.396 15.794z" fill="url(#SVGID_8_)"/><path d="m373.864 267.102c-12.767-.84-75.552-13.206-75.555-13.237-20.622-3.627-37.812 14.441-35.23 35.218.016.003 7.281 62.776 8.167 75.539.622 8.682-2.039 16.855-6.412 23.829 2.979-1.881 5.738-4.096 8.212-6.602 8.274-8.383 13.46-19.957 13.513-32.672.076-18.772.13-37.544.16-56.316.013-8.484 6.9-15.371 15.39-15.387 18.785-.041 37.571-.107 56.356-.199 12.471-.064 23.816-5.034 32.131-12.942-5.199 2.088-10.844 3.185-16.732 2.769z" fill="url(#SVGID_9_)"/></g></svg>