<svg id="Capa_1" enable-background="new 0 0 512 512" height="512" viewBox="0 0 512 512" width="512" xmlns="http://www.w3.org/2000/svg" xmlns:xlink="http://www.w3.org/1999/xlink"><linearGradient id="SVGID_1_" gradientUnits="userSpaceOnUse" x1="74.982" x2="437.019" y1="437.02" y2="74.981"><stop offset="0" stop-color="#0072ff"/><stop offset=".2462" stop-color="#279cf6"/><stop offset=".5952" stop-color="#5ad1ea"/><stop offset=".8572" stop-color="#79f2e3"/><stop offset="1" stop-color="#85ffe0"/></linearGradient><radialGradient id="SVGID_2_" cx="254.48" cy="287.943" gradientUnits="userSpaceOnUse" r="289.557"><stop offset="0" stop-color="#0056e0" stop-opacity=".5"/><stop offset=".1546" stop-color="#0074d3" stop-opacity=".423"/><stop offset=".4303" stop-color="#00a5bd" stop-opacity=".285"/><stop offset=".6732" stop-color="#00c8ae" stop-opacity=".163"/><stop offset=".8713" stop-color="#00dea4" stop-opacity=".064"/><stop offset="1" stop-color="#00e5a1" stop-opacity="0"/></radialGradient><linearGradient id="lg1"><stop offset="0" stop-color="#00e5a1" stop-opacity="0"/><stop offset=".1287" stop-color="#00dea4" stop-opacity=".064"/><stop offset=".3268" stop-color="#00c8ae" stop-opacity=".163"/><stop offset=".5697" stop-color="#00a5bd" stop-opacity=".285"/><stop offset=".8454" stop-color="#0074d3" stop-opacity=".423"/><stop offset="1" stop-color="#0056e0" stop-opacity=".5"/></linearGradient><radialGradient id="SVGID_3_" cx="150.012" cy="350.705" gradientUnits="userSpaceOnUse" r="61.007" xlink:href="#lg1"/><radialGradient id="SVGID_4_" cx="150.012" cy="350.705" gradientTransform="matrix(-1 0 0 1 512 0)" gradientUnits="userSpaceOnUse" r="61.007" xlink:href="#lg1"/><linearGradient id="lg2"><stop offset="0" stop-color="#3ca1ff"/><stop offset=".5952" stop-color="#6adcec"/><stop offset="1" stop-color="#85ffe0"/></linearGradient><linearGradient id="SVGID_5_" gradientUnits="userSpaceOnUse" x1="-224.39" x2="273.611" xlink:href="#lg2" y1="574.507" y2="76.506"/><linearGradient id="SVGID_6_" gradientUnits="userSpaceOnUse" x1="-17.096" x2="379.848" xlink:href="#lg2" y1="493.867" y2="96.924"/><linearGradient id="SVGID_7_" gradientUnits="userSpaceOnUse" x1="23.913" x2="379.763" xlink:href="#lg2" y1="637.619" y2="281.769"/><radialGradient id="SVGID_8_" cx="246.138" cy="281.375" gradientTransform="matrix(.557 -.831 .31 .207 22.059 427.54)" gradientUnits="userSpaceOnUse" r="221.927"><stop offset="0" stop-color="#0056e0" stop-opacity=".66"/><stop offset=".0121" stop-color="#045be0" stop-opacity=".652"/><stop offset=".1282" stop-color="#2686e0" stop-opacity=".575"/><stop offset=".2498" stop-color="#43ace0" stop-opacity=".495"/><stop offset=".3759" stop-color="#5bcae0" stop-opacity=".412"/><stop offset=".5078" stop-color="#6ee1e0" stop-opacity=".325"/><stop offset=".6483" stop-color="#7bf2e0" stop-opacity=".232"/><stop offset=".8031" stop-color="#83fce0" stop-opacity=".13"/><stop offset="1" stop-color="#85ffe0" stop-opacity="0"/></radialGradient><linearGradient id="lg3"><stop offset="0" stop-color="#85ffe0"/><stop offset="1" stop-color="#fff"/></linearGradient><linearGradient id="SVGID_9_" gradientUnits="userSpaceOnUse" x1="-27.669" x2="673.156" xlink:href="#lg3" y1="505.485" y2="-195.34"/><linearGradient id="SVGID_10_" gradientUnits="userSpaceOnUse" x1="-172.457" x2="399.237" xlink:href="#lg3" y1="673.198" y2="101.504"/><g><circle cx="256" cy="256" fill="url(#SVGID_1_)" r="256"/><circle cx="256" cy="256" fill="url(#SVGID_2_)" r="256"/><path d="m201.081 385.413c-18.317 28.048-55.206 34.619-83.556 15.041-28.367-19.586-37.312-56.955-18.918-84.327 18.364-27.395 56.608-34.855 84.868-15.901 28.319 18.932 35.909 57.191 17.606 85.187z" fill="url(#SVGID_3_)"/><path d="m328.526 300.226c28.259-18.954 66.504-11.494 84.868 15.901 18.394 27.372 9.448 64.74-18.918 84.327-28.35 19.579-65.238 13.008-83.556-15.04-18.304-27.997-10.715-66.256 17.606-85.188z" fill="url(#SVGID_4_)"/><path d="m157.886 70.262c-2.451-3.821-7.757-4.297-11.269-1.075-22.45 20.632-28.385 54.174-11.737 79.303 21.42 32.449 43.465 65.394 65.645 98.516h36.983c0-18.445.014-36.89.042-55.335-33.997-50.897-68.52-103.896-79.664-121.409z" fill="url(#SVGID_5_)"/><path d="m237.551 191.671c-12.328 18.463-24.697 36.926-37.025 55.335 10.25 15.306 20.529 30.65 30.789 46 12.277-18.421 24.62-36.882 36.943-55.327-9.517-14.241-20.04-29.99-30.707-46.008z" fill="url(#SVGID_6_)"/><path d="m426.279 307.548c-14.429-21.453-38.736-33.168-63.502-33.091-17.796.075-35.592.131-53.388.167-10.264.023-19.836-5.079-25.537-13.611-4.735-7.087-9.991-14.95-15.594-23.334-12.324 18.445-24.666 36.906-36.943 55.327 22.571 33.77 45.049 67.571 66.92 101.068 22.957 35.181 68.73 43.326 104.173 18.683 35.484-24.651 46.95-71.101 23.871-105.209zm-39.814 80.552c-21.262 14.595-49.119 9.615-62.833-11.355-13.704-20.946-7.918-49.619 13.322-63.851 21.211-14.244 49.831-8.764 63.571 11.839 13.755 20.594 7.206 48.766-14.06 63.367z" fill="url(#SVGID_7_)"/><path d="m426.279 307.548c-14.429-21.453-38.736-33.168-63.502-33.091-17.796.075-35.592.131-53.388.167-10.264.023-19.836-5.079-25.537-13.611-5.141-7.276-116.029-173.948-125.965-190.751-2.451-3.821-7.757-4.297-11.269-1.075-22.45 20.632-28.385 54.174-11.737 79.303 53.095 80.433 110.028 163.912 163.354 245.584 22.957 35.181 68.73 43.326 104.173 18.683 35.484-24.651 46.95-71.101 23.871-105.209zm-39.814 80.552c-21.262 14.595-49.119 9.615-62.833-11.355-13.704-20.946-7.918-49.619 13.322-63.851 21.211-14.244 49.831-8.764 63.571 11.839 13.755 20.594 7.206 48.766-14.06 63.367z" fill="url(#SVGID_8_)"/><path d="m370.719 74.69c-18.332 47.561-38.043 95.778-58.175 144.262-30.078 23.598-60.315 47.427-90.374 71.066-6.518-5.135-13.04-10.268-19.563-15.396 10.264.023 19.843-5.073 25.537-13.604 38.71-57.546 109.716-164.762 125.967-190.758 2.449-3.821 7.763-4.296 11.269-1.075 1.902 1.74 3.679 3.589 5.339 5.505z" fill="url(#SVGID_9_)"/><path d="m370.719 74.69c-19.542 31.021-86.021 131.242-123.03 186.334-5.698 8.537-15.281 13.646-25.546 13.631-6.512-.009-13.024-.02-19.536-.034-17.794-.035-35.588-.088-53.382-.161-24.77-.077-49.074 11.637-63.506 33.088-23.077 34.109-11.615 80.562 23.868 105.211 35.453 24.64 81.22 16.5 104.175-18.681 53.327-81.675 110.261-165.157 163.357-245.594 15.235-23.003 11.559-53.021-6.4-73.794zm-182.351 302.055c-13.713 20.97-41.571 25.95-62.833 11.355-21.266-14.6-27.815-42.773-14.06-63.368 13.74-20.603 42.36-26.083 63.571-11.839 21.24 14.232 27.026 42.905 13.322 63.852z" fill="url(#SVGID_10_)"/></g></svg>